<svg width="32" height="33" viewBox="0 0 32 33" fill="none" xmlns="http://www.w3.org/2000/svg">
<path d="M4.99902 5.49902H8.99902L11.679 18.889C11.7705 19.3494 12.0209 19.763 12.3866 20.0573C12.7522 20.3517 13.2097 20.508 13.679 20.499H23.399C23.8683 20.508 24.3258 20.3517 24.6915 20.0573C25.0571 19.763 25.3076 19.3494 25.399 18.889L26.999 10.499H9.99902M13.999 25.499C13.999 26.0513 13.5513 26.499 12.999 26.499C12.4467 26.499 11.999 26.0513 11.999 25.499C11.999 24.9467 12.4467 24.499 12.999 24.499C13.5513 24.499 13.999 24.9467 13.999 25.499ZM24.999 25.499C24.999 26.0513 24.5513 26.499 23.999 26.499C23.4467 26.499 22.999 26.0513 22.999 25.499C22.999 24.9467 23.4467 24.499 23.999 24.499C24.5513 24.499 24.999 24.9467 24.999 25.499Z" stroke="#B4CAD5" stroke-linecap="round" stroke-linejoin="round"/>
</svg>
